HIERARCHY
ROOT Hips
{
	OFFSET 0.000000 0.000000 0.000000
	CHANNELS 6 Xposition Yposition Zposition Zrotation Yrotation Xrotation 
	JOINT LHipJoint
	{
		OFFSET 0.000000 0.000000 0.000000
		CHANNELS 3 Zrotation Yrotation Xrotation
		JOINT LeftUpLeg
		{
			OFFSET 1.363060 -1.794630 0.839290
			CHANNELS 3 Zrotation Yrotation Xrotation
			JOINT LeftLeg
			{
				OFFSET 2.448110 -6.726130 0.000000
				CHANNELS 3 Zrotation Yrotation Xrotation
				JOINT LeftFoot
				{
					OFFSET 2.562200 -7.039590 0.000000
					CHANNELS 3 Zrotation Yrotation Xrotation
					JOINT LeftToeBase
					{
						OFFSET 0.157640 -0.433110 2.322550
						CHANNELS 3 Zrotation Yrotation Xrotation
						End Site
						{
							OFFSET 0.000000 0.000000 0.000000
						}
					}
				}
			}
		}
	}
	JOINT RHipJoint
	{
		OFFSET 0.000000 0.000000 0.000000
		CHANNELS 3 Zrotation Yrotation Xrotation
		JOINT RightUpLeg
		{
			OFFSET -1.305520 -1.794630 0.839290
			CHANNELS 3 Zrotation Yrotation Xrotation
			JOINT RightLeg
			{
				OFFSET -2.542530 -6.985550 0.000000
				CHANNELS 3 Zrotation Yrotation Xrotation
				JOINT RightFoot
				{
					OFFSET -2.568260 -7.056230 0.000000
					CHANNELS 3 Zrotation Yrotation Xrotation
					JOINT RightToeBase
					{
						OFFSET -0.164730 -0.452590 2.363150
						CHANNELS 3 Zrotation Yrotation Xrotation
						End Site
						{
							OFFSET 0.000000 0.000000 0.000000
						}
					}
				}
			}
		}
	}
}
MOTION
Frames: 30
Frame Time: 0.008333
-4.972936 14.984914 -0.274280 -171.510961 -86.851095 -119.717612 -8.564617 -1.322449 2.923543 -7.137394 -7.073913 -104.982883 -3.380003 4.925019 47.213230 3.057377 7.696585 -15.278855 -0.175400 -0.000000 -43.006800 8.548491 0.627353 5.351020 2.050209 12.666263 -105.705882 2.363593 -5.124752 49.705300 -2.539117 -4.529635 -15.177708 -0.134800 -0.000001 -57.674600
-4.959610 14.976163 -0.304442 -172.009927 -86.620097 -119.309318 -8.553867 -1.333266 2.854557 -7.201712 -6.873450 -105.008198 -3.366655 4.985412 47.460492 3.066095 7.755804 -15.292628 -0.183101 0.000000 -43.132800 8.525225 0.671769 5.341918 1.921364 12.823167 -105.784241 2.297259 -5.121950 50.008341 -2.542895 -4.522700 -15.290928 -0.114800 0.000000 -57.555000
-4.945961 14.967125 -0.335141 -172.566969 -86.401538 -118.850487 -8.542635 -1.344979 2.785100 -7.262586 -6.680722 -105.028892 -3.349578 5.044885 47.713605 3.078155 7.831884 -15.298214 -0.189400 -0.000000 -43.274900 8.501105 0.718794 5.325881 1.801162 12.967536 -105.858620 2.230746 -5.122537 50.331510 -2.546570 -4.514081 -15.415291 -0.092800 0.000000 -57.429400
-4.931959 14.957868 -0.366574 -173.204594 -86.193281 -118.321140 -8.529820 -1.357120 2.713815 -7.325617 -6.495577 -105.040382 -3.329204 5.103470 47.972791 3.094258 7.927653 -15.296637 -0.194700 -0.000000 -43.428299 8.476956 0.769145 5.303057 1.687034 13.097704 -105.926820 2.163506 -5.126387 50.675874 -2.549843 -4.502609 -15.552022 -0.068600 0.000000 -57.289800
-4.917757 14.948360 -0.398501 -173.859690 -85.997541 -117.785507 -8.516833 -1.370887 2.641979 -7.385112 -6.314581 -105.042766 -3.304760 5.161060 48.239539 3.114496 8.042786 -15.290453 -0.199400 0.000000 -43.586400 8.451548 0.821000 5.273233 1.585952 13.217104 -105.984126 2.096615 -5.133209 51.038830 -2.552816 -4.488597 -15.700825 -0.042200 0.000000 -57.145600
-4.903369 14.938776 -0.430847 -174.510848 -85.814058 -117.268684 -8.504195 -1.386991 2.569566 -7.438954 -6.134835 -105.033486 -3.276078 5.217735 48.515256 3.138113 8.173851 -15.282470 -0.204201 0.000000 -43.743200 8.423929 0.873963 5.236422 1.499084 13.328174 -106.026453 2.029870 -5.142321 51.419806 -2.556054 -4.473798 -15.862823 -0.013400 -0.000000 -56.990500
-4.888899 14.929134 -0.463554 -175.124792 -85.643126 -116.805427 -8.492839 -1.406643 2.496631 -7.482739 -5.951491 -105.010051 -3.243167 5.273524 48.800510 3.163597 8.314374 -15.275815 -0.209600 -0.000000 -43.894200 8.392870 0.927418 5.192628 1.427539 13.434997 -106.048209 1.962844 -5.152451 51.817026 -2.560742 -4.462256 -16.038702 0.017600 -0.000000 -56.823500
-4.874371 14.919586 -0.496534 -175.667117 -85.485636 -116.434206 -8.483812 -1.431513 2.423336 -7.509339 -5.759715 -104.970809 -3.205544 5.328545 49.097515 3.189102 8.456540 -15.274027 -0.216600 -0.000000 -44.036200 8.356521 0.980824 5.141544 1.372610 13.543050 -106.044134 1.894703 -5.162228 52.229862 -2.568637 -4.460278 -16.228824 0.051100 -0.000000 -56.644501
-4.859982 14.910089 -0.529590 -176.096165 -85.342552 -116.196526 -8.478700 -1.463377 2.349971 -7.510370 -5.553915 -104.913966 -3.162734 5.382819 49.407972 3.212561 8.591900 -15.279813 -0.225600 0.000000 -44.169700 8.312980 1.033629 5.082956 1.335010 13.658087 -106.008135 1.824633 -5.169873 52.656593 -2.581817 -4.475270 -16.433700 0.087300 0.000000 -56.454000
-4.845641 14.900914 -0.562460 -176.360620 -85.215649 -116.150417 -8.479496 -1.504758 2.276817 -7.473948 -5.327611 -104.837356 -3.113361 5.436373 49.734749 3.232327 8.713871 -15.295764 -0.237400 0.000000 -44.297600 8.258937 1.085398 5.015238 1.318669 13.787073 -105.931706 1.751927 -5.173732 53.096672 -2.602464 -4.515217 -16.654244 0.126501 0.000000 -56.244500
-4.831585 14.892063 -0.594986 -176.433115 -85.105996 -116.323381 -8.487146 -1.556866 2.204445 -7.392413 -5.076859 -104.738451 -3.056842 5.488888 50.078637 3.247304 8.818165 -15.322974 -0.252100 0.000000 -44.425700 8.193384 1.135946 4.938698 1.322758 13.934808 -105.809048 1.675438 -5.171988 53.548038 -2.632665 -4.588499 -16.888722 0.169000 -0.000000 -56.029400
-4.818016 14.883321 -0.627249 -176.353264 -85.008900 -116.672680 -8.500242 -1.617037 2.136551 -7.266086 -4.809163 -104.621539 -2.993313 5.539510 50.438623 3.258924 8.909385 -15.361404 -0.269600 0.000000 -44.557000 8.119172 1.185804 4.859958 1.332319 14.102569 -105.652062 1.592864 -5.163621 54.010855 -2.673647 -4.700520 -17.133156 0.214401 -0.000000 -55.813400
-4.804755 14.875645 -0.658238 -175.928740 -84.935775 -117.411619 -8.526636 -1.693518 2.067945 -7.068774 -4.499681 -104.468455 -2.918114 5.589129 50.822116 3.265084 8.982744 -15.411185 -0.290300 -0.000000 -44.705600 8.023908 1.234337 4.762258 1.388914 14.301164 -105.413527 1.508087 -5.146972 54.482204 -2.727113 -4.857494 -17.395519 0.265600 0.000000 -55.586099
-4.792054 14.868712 -0.687947 -175.180516 -84.879930 -118.514009 -8.565021 -1.781911 2.002369 -6.803710 -4.156778 -104.282832 -2.831333 5.637007 51.227812 3.269331 9.051352 -15.471673 -0.313600 -0.000000 -44.872800 7.911122 1.282957 4.651228 1.482207 14.529585 -105.103959 1.420190 -5.121976 54.962585 -2.792621 -5.059003 -17.672355 0.322500 -0.000000 -55.342899
-4.780003 14.862638 -0.716329 -174.077897 -84.838148 -120.015579 -8.614833 -1.879871 1.939598 -6.472854 -3.779748 -104.058488 -2.732483 5.683085 51.656315 3.273975 9.125544 -15.541216 -0.339501 -0.000000 -45.060100 7.781738 1.333583 4.526086 1.616865 14.787901 -104.716400 1.329726 -5.088658 55.451728 -2.869449 -5.303939 -17.962587 0.386100 0.000000 -55.092700
-4.768606 14.857535 -0.743177 -172.614157 -84.806741 -121.926970 -8.674367 -1.982958 1.880479 -6.080872 -3.374811 -103.789551 -2.621246 5.726416 52.105747 3.282658 9.220288 -15.618858 -0.368000 0.000000 -45.262900 7.638751 1.389246 4.386371 1.796864 15.068955 -104.247926 1.238308 -5.048694 55.949967 -2.955018 -5.584659 -18.264772 0.456900 0.000000 -54.841200
-4.757948 14.853530 -0.768285 -170.711881 -84.779231 -124.330055 -8.741504 -2.086495 1.824935 -5.632004 -2.940085 -103.470570 -2.497782 5.767068 52.575763 3.298041 9.346910 -15.704718 -0.399400 -0.000000 -45.473900 7.485492 1.452619 4.231051 2.033918 15.371962 -103.690299 1.148586 -5.003386 56.454605 -3.046366 -5.891616 -18.578276 0.535500 -0.000000 -54.580800
-4.747834 14.850194 -0.792326 -168.499236 -84.750011 -127.094401 -8.808081 -2.183093 1.770870 -5.150477 -2.492924 -103.097911 -2.364735 5.804391 53.065311 3.322535 9.515594 -15.798196 -0.434100 0.000001 -45.680000 7.332451 1.529262 4.063364 2.313339 15.678095 -103.057342 1.059733 -4.956428 56.973574 -3.139999 -6.214479 -18.900814 0.621600 -0.000001 -54.352699
-4.738911 14.848367 -0.814511 -165.748365 -84.715110 -130.457318 -8.870530 -2.268196 1.719852 -4.631691 -2.020668 -102.658252 -2.222726 5.836826 53.567169 3.356320 9.727476 -15.901542 -0.473201 -0.000000 -45.870700 7.185654 1.618591 3.881925 2.669202 15.991187 -102.322406 0.979001 -4.909414 57.488192 -3.231243 -6.536072 -19.231690 0.715100 -0.000000 -54.128600
-4.730879 14.847812 -0.835357 -162.517710 -84.670877 -134.361349 -8.917646 -2.336690 1.668677 -4.094963 -1.533611 -102.149299 -2.074859 5.863639 54.081983 3.398551 9.979701 -16.016356 -0.517600 0.000000 -46.032000 7.058464 1.723774 3.689860 3.095491 16.295550 -101.495184 0.906917 -4.866966 58.002490 -3.316382 -6.843662 -19.571070 0.815100 -0.000000 -53.924900
-4.724121 14.848382 -0.855073 -158.771706 -84.616744 -138.839610 -8.939117 -2.386952 1.615198 -3.550409 -1.033504 -101.567562 -1.924104 5.883373 54.609127 3.446273 10.260624 -16.145371 -0.568500 -0.000000 -46.154600 6.964231 1.843002 3.490821 3.597861 16.581155 -100.576599 0.846099 -4.833321 58.511855 -3.391960 -7.123670 -19.920685 0.921000 -0.000001 -53.734100
-4.718514 14.850018 -0.874195 -154.733480 -84.565614 -143.671531 -8.925985 -2.423563 1.556364 -3.019767 -0.544387 -100.905599 -1.774223 5.892576 55.145025 3.495742 10.555803 -16.288373 -0.626399 -0.000000 -46.231300 6.914727 1.969013 3.289994 4.163397 16.817226 -99.580428 0.796478 -4.814424 59.018400 -3.454868 -7.364568 -20.280209 1.030700 -0.000000 -53.598700
-4.714357 14.853048 -0.892352 -150.207542 -84.522949 -149.056032 -8.872319 -2.457025 1.488561 -2.495471 -0.054266 -100.160367 -1.626405 5.889902 55.694621 3.540608 10.840926 -16.446695 -0.691600 0.000000 -46.270500 6.917291 2.089348 3.088932 4.812419 17.003847 -98.495480 0.761967 -4.813400 59.508693 -3.503451 -7.557338 -20.653096 1.143400 -0.000001 -53.471800
-4.711715 14.857912 -0.909439 -145.309310 -84.510077 -154.882796 -8.779366 -2.504190 1.406971 -1.984019 0.418281 -99.315592 -1.482563 5.871521 56.254265 3.575111 11.095054 -16.615413 -0.762800 0.000000 -46.286300 6.972348 2.186852 2.886752 5.544307 17.109747 -97.317058 0.743741 -4.834138 59.975304 -3.536028 -7.695244 -21.037815 1.256799 -0.000000 -53.392401
-4.710884 14.863568 -0.927445 -140.788308 -84.527363 -160.391307 -8.672667 -2.577608 1.315417 -1.533321 0.846470 -98.389733 -1.349237 5.844489 56.826874 3.596020 11.303234 -16.788824 -0.837600 0.000001 -46.304100 7.057489 2.242952 2.699066 6.292396 17.116316 -96.099215 0.733183 -4.872313 60.436449 -3.553093 -7.775076 -21.435942 1.368299 0.000000 -53.359300
-4.711901 14.870615 -0.945938 -136.736543 -84.571729 -165.495633 -8.570719 -2.680369 1.213493 -1.138703 1.237874 -97.378908 -1.225517 5.813266 57.415738 3.599598 11.453463 -16.954682 -0.912000 0.000000 -46.364100 7.154398 2.256153 2.517924 7.059885 17.019940 -94.823657 0.731274 -4.923100 60.884462 -3.554423 -7.795004 -21.844966 1.476401 0.000000 -53.381001
-4.715043 14.879218 -0.964925 -133.253204 -84.625943 -170.096093 -8.488111 -2.808142 1.101680 -0.797808 1.611964 -96.291602 -1.110255 5.784625 58.030361 3.583511 11.539840 -17.096081 -0.980500 0.000000 -46.516600 7.248765 2.231341 2.340115 7.841927 16.833851 -93.480221 0.737453 -4.979669 61.313799 -3.541464 -7.757853 -22.265349 1.580200 -0.000001 -53.429600
-4.720302 14.889482 -0.984894 -130.630459 -84.667865 -173.897906 -8.435493 -2.944003 0.981975 -0.518972 1.979011 -95.142925 -1.001758 5.765722 58.679260 3.548828 11.571096 -17.188803 -1.036500 0.000000 -46.807700 7.330347 2.186342 2.163924 8.615090 16.567854 -92.070046 0.748840 -5.034281 61.725205 -3.515586 -7.668697 -22.692616 1.678100 -0.000001 -53.514600
-4.727819 14.901478 -1.006213 -129.001260 -84.676945 -176.762620 -8.413254 -3.069703 0.855349 -0.304180 2.353513 -93.951067 -0.896739 5.761432 59.372820 3.498337 11.564578 -17.203139 -1.073200 0.000000 -47.277900 7.398807 2.140189 1.988703 9.364324 16.238057 -90.591186 0.763520 -5.080660 62.115596 -3.479024 -7.535992 -23.123441 1.769500 -0.000000 -53.629200
-4.737524 14.915436 -1.028976 -128.335543 -84.642180 -178.717529 -8.415658 -3.174203 0.720517 -0.150703 2.748122 -92.732720 -0.790614 5.773854 60.123173 3.436126 11.544554 -17.106113 -1.084100 0.000001 -47.953700 7.459085 2.105363 1.813664 10.082354 15.858175 -89.038362 0.780572 -5.114881 62.477851 -3.434434 -7.370008 -23.555457 1.854001 -0.000000 -53.761600
